<svg xmlns="http://www.w3.org/2000/svg" width="720" height="480" viewBox="-40 -40 720 480" shape-rendering="crispEdges">
<defs>
  <pattern id="gridMinor" width="40" height="40" patternUnits="userSpaceOnUse">
    <path d="M 40 0 L 0 0 0 40" fill="none" stroke="#94a3b8" stroke-width="1.4" />
  </pattern>
  <pattern id="gridMajor" width="200" height="200" patternUnits="userSpaceOnUse">
    <path d="M 200 0 L 0 0 0 200" fill="none" stroke="#64748b" stroke-width="1.4" />
  </pattern>
</defs>
<rect width="720" height="480" fill="white" x="-40" y="-40" />
<rect width="720" height="480" fill="url(#gridMinor)" x="-40" y="-40" />
<rect width="720" height="480" fill="url(#gridMajor)" x="-40" y="-40" />
<line x1="0" y1="240" x2="160" y2="240" stroke="#111111" stroke-width="4.9" stroke-linecap="square" />
<line x1="160" y1="240" x2="160" y2="320" stroke="#111111" stroke-width="2.1" stroke-linecap="square" stroke-dasharray="6 4" />
<line x1="0" y1="320" x2="160" y2="320" stroke="#111111" stroke-width="4.9" stroke-linecap="square" />
<line x1="0" y1="240" x2="0" y2="320" stroke="#111111" stroke-width="4.9" stroke-linecap="square" />
<line x1="160" y1="240" x2="280" y2="240" stroke="#111111" stroke-width="4.9" stroke-linecap="square" />
<line x1="280" y1="240" x2="280" y2="320" stroke="#111111" stroke-width="2.1" stroke-linecap="square" stroke-dasharray="6 4" />
<line x1="160" y1="320" x2="280" y2="320" stroke="#111111" stroke-width="4.9" stroke-linecap="square" />
<line x1="280" y1="240" x2="440" y2="240" stroke="#111111" stroke-width="2.1" stroke-linecap="square" stroke-dasharray="6 4" />
<line x1="440" y1="240" x2="440" y2="320" stroke="#111111" stroke-width="2.1" stroke-linecap="square" stroke-dasharray="6 4" />
<line x1="280" y1="320" x2="440" y2="320" stroke="#111111" stroke-width="4.9" stroke-linecap="square" />
<line x1="440" y1="240" x2="560" y2="240" stroke="#111111" stroke-width="4.9" stroke-linecap="square" />
<line x1="560" y1="240" x2="560" y2="320" stroke="#111111" stroke-width="4.9" stroke-linecap="square" />
<line x1="440" y1="320" x2="560" y2="320" stroke="#111111" stroke-width="4.9" stroke-linecap="square" />
<line x1="280" y1="0" x2="440" y2="0" stroke="#111111" stroke-width="4.9" stroke-linecap="square" />
<line x1="440" y1="0" x2="440" y2="120" stroke="#111111" stroke-width="4.9" stroke-linecap="square" />
<line x1="280" y1="120" x2="440" y2="120" stroke="#111111" stroke-width="2.1" stroke-linecap="square" stroke-dasharray="6 4" />
<line x1="280" y1="0" x2="280" y2="120" stroke="#111111" stroke-width="4.9" stroke-linecap="square" />
<line x1="440" y1="120" x2="440" y2="240" stroke="#111111" stroke-width="4.9" stroke-linecap="square" />
<line x1="280" y1="120" x2="280" y2="240" stroke="#111111" stroke-width="4.9" stroke-linecap="square" />
<g data-point-labels="true" font-family="sans-serif" font-size="20" font-weight="700" fill="#111111" text-anchor="middle" dominant-baseline="middle"><text x="-10" y="230">ㄱ</text><text x="150" y="230">ㄴ</text><text x="150" y="310">ㄷ</text><text x="-10" y="310">ㄹ</text><text x="270" y="230">ㅁ</text><text x="270" y="310">ㅂ</text><text x="430" y="230">ㅅ</text><text x="430" y="310">ㅇ</text><text x="550" y="230">ㅈ</text><text x="550" y="310">ㅊ</text><text x="270" y="-10">ㅋ</text><text x="430" y="-10">ㅌ</text><text x="430" y="110">ㅍ</text><text x="270" y="110">ㅎ</text></g>
</svg>
