<svg xmlns="http://www.w3.org/2000/svg" width="640" height="600" viewBox="-40 -40 640 600" shape-rendering="crispEdges">
<defs>
  <pattern id="gridMinor" width="40" height="40" patternUnits="userSpaceOnUse">
    <path d="M 40 0 L 0 0 0 40" fill="none" stroke="#94a3b8" stroke-width="1.4" />
  </pattern>
  <pattern id="gridMajor" width="200" height="200" patternUnits="userSpaceOnUse">
    <path d="M 200 0 L 0 0 0 200" fill="none" stroke="#64748b" stroke-width="1.4" />
  </pattern>
</defs>
<rect width="640" height="600" fill="white" x="-40" y="-40" />
<rect width="640" height="600" fill="url(#gridMinor)" x="-40" y="-40" />
<rect width="640" height="600" fill="url(#gridMajor)" x="-40" y="-40" />
<line x1="0" y1="320" x2="80" y2="320" stroke="#111111" stroke-width="2.1" stroke-linecap="square" stroke-dasharray="6 4" />
<line x1="80" y1="320" x2="80" y2="440" stroke="#111111" stroke-width="2.1" stroke-linecap="square" stroke-dasharray="6 4" />
<line x1="0" y1="440" x2="80" y2="440" stroke="#111111" stroke-width="4.9" stroke-linecap="square" />
<line x1="0" y1="320" x2="0" y2="440" stroke="#111111" stroke-width="4.9" stroke-linecap="square" />
<line x1="80" y1="320" x2="240" y2="320" stroke="#111111" stroke-width="4.9" stroke-linecap="square" />
<line x1="240" y1="320" x2="240" y2="440" stroke="#111111" stroke-width="2.1" stroke-linecap="square" stroke-dasharray="6 4" />
<line x1="80" y1="440" x2="240" y2="440" stroke="#111111" stroke-width="4.9" stroke-linecap="square" />
<line x1="240" y1="320" x2="320" y2="320" stroke="#111111" stroke-width="4.9" stroke-linecap="square" />
<line x1="320" y1="320" x2="320" y2="440" stroke="#111111" stroke-width="2.1" stroke-linecap="square" stroke-dasharray="6 4" />
<line x1="240" y1="440" x2="320" y2="440" stroke="#111111" stroke-width="4.9" stroke-linecap="square" />
<line x1="320" y1="320" x2="480" y2="320" stroke="#111111" stroke-width="4.9" stroke-linecap="square" />
<line x1="480" y1="320" x2="480" y2="440" stroke="#111111" stroke-width="4.9" stroke-linecap="square" />
<line x1="320" y1="440" x2="480" y2="440" stroke="#111111" stroke-width="4.9" stroke-linecap="square" />
<line x1="0" y1="0" x2="80" y2="0" stroke="#111111" stroke-width="4.9" stroke-linecap="square" />
<line x1="80" y1="0" x2="80" y2="160" stroke="#111111" stroke-width="4.9" stroke-linecap="square" />
<line x1="0" y1="160" x2="80" y2="160" stroke="#111111" stroke-width="2.1" stroke-linecap="square" stroke-dasharray="6 4" />
<line x1="0" y1="0" x2="0" y2="160" stroke="#111111" stroke-width="4.9" stroke-linecap="square" />
<line x1="80" y1="160" x2="80" y2="320" stroke="#111111" stroke-width="4.9" stroke-linecap="square" />
<line x1="0" y1="160" x2="0" y2="320" stroke="#111111" stroke-width="4.9" stroke-linecap="square" />
<g data-point-labels="true" font-family="sans-serif" font-size="20" font-weight="700" fill="#111111" text-anchor="middle" dominant-baseline="middle"><text x="-10" y="310">ㄱ</text><text x="70" y="310">ㄴ</text><text x="70" y="430">ㄷ</text><text x="-10" y="430">ㄹ</text><text x="230" y="310">ㅁ</text><text x="230" y="430">ㅂ</text><text x="310" y="310">ㅅ</text><text x="310" y="430">ㅇ</text><text x="470" y="310">ㅈ</text><text x="470" y="430">ㅊ</text><text x="-10" y="-10">ㅋ</text><text x="70" y="-10">ㅌ</text><text x="70" y="150">ㅍ</text><text x="-10" y="150">ㅎ</text></g>
</svg>
