<svg xmlns="http://www.w3.org/2000/svg" width="560" height="560" viewBox="-40 -40 560 560" shape-rendering="crispEdges">
<defs>
  <pattern id="gridMinor" width="40" height="40" patternUnits="userSpaceOnUse">
    <path d="M 40 0 L 0 0 0 40" fill="none" stroke="#94a3b8" stroke-width="1.4" />
  </pattern>
  <pattern id="gridMajor" width="200" height="200" patternUnits="userSpaceOnUse">
    <path d="M 200 0 L 0 0 0 200" fill="none" stroke="#64748b" stroke-width="1.4" />
  </pattern>
</defs>
<rect width="560" height="560" fill="white" x="-40" y="-40" />
<rect width="560" height="560" fill="url(#gridMinor)" x="-40" y="-40" />
<rect width="560" height="560" fill="url(#gridMajor)" x="-40" y="-40" />
<line x1="0" y1="0" x2="80" y2="0" stroke="#111111" stroke-width="4.9" stroke-linecap="square" />
<line x1="80" y1="0" x2="80" y2="160" stroke="#111111" stroke-width="2.1" stroke-linecap="square" stroke-dasharray="6 4" />
<line x1="0" y1="160" x2="80" y2="160" stroke="#111111" stroke-width="4.9" stroke-linecap="square" />
<line x1="0" y1="0" x2="0" y2="160" stroke="#111111" stroke-width="4.9" stroke-linecap="square" />
<line x1="80" y1="0" x2="200" y2="0" stroke="#111111" stroke-width="4.9" stroke-linecap="square" />
<line x1="200" y1="0" x2="200" y2="160" stroke="#111111" stroke-width="2.1" stroke-linecap="square" stroke-dasharray="6 4" />
<line x1="80" y1="160" x2="200" y2="160" stroke="#111111" stroke-width="4.9" stroke-linecap="square" />
<line x1="200" y1="0" x2="280" y2="0" stroke="#111111" stroke-width="4.9" stroke-linecap="square" />
<line x1="280" y1="0" x2="280" y2="160" stroke="#111111" stroke-width="2.1" stroke-linecap="square" stroke-dasharray="6 4" />
<line x1="200" y1="160" x2="280" y2="160" stroke="#111111" stroke-width="2.1" stroke-linecap="square" stroke-dasharray="6 4" />
<line x1="280" y1="0" x2="400" y2="0" stroke="#111111" stroke-width="4.9" stroke-linecap="square" />
<line x1="400" y1="0" x2="400" y2="160" stroke="#111111" stroke-width="4.9" stroke-linecap="square" />
<line x1="280" y1="160" x2="400" y2="160" stroke="#111111" stroke-width="4.9" stroke-linecap="square" />
<line x1="280" y1="160" x2="280" y2="280" stroke="#111111" stroke-width="4.9" stroke-linecap="square" />
<line x1="200" y1="280" x2="280" y2="280" stroke="#111111" stroke-width="2.1" stroke-linecap="square" stroke-dasharray="6 4" />
<line x1="200" y1="160" x2="200" y2="280" stroke="#111111" stroke-width="4.9" stroke-linecap="square" />
<line x1="280" y1="280" x2="280" y2="400" stroke="#111111" stroke-width="4.9" stroke-linecap="square" />
<line x1="200" y1="400" x2="280" y2="400" stroke="#111111" stroke-width="4.9" stroke-linecap="square" />
<line x1="200" y1="280" x2="200" y2="400" stroke="#111111" stroke-width="4.9" stroke-linecap="square" />
<g data-point-labels="true" font-family="sans-serif" font-size="20" font-weight="700" fill="#111111" text-anchor="middle" dominant-baseline="middle"><text x="-10" y="-10">ㄱ</text><text x="70" y="-10">ㄴ</text><text x="70" y="150">ㄷ</text><text x="-10" y="150">ㄹ</text><text x="190" y="-10">ㅁ</text><text x="190" y="150">ㅂ</text><text x="270" y="-10">ㅅ</text><text x="270" y="150">ㅇ</text><text x="390" y="-10">ㅈ</text><text x="390" y="150">ㅊ</text><text x="270" y="270">ㅋ</text><text x="190" y="270">ㅌ</text><text x="270" y="390">ㅍ</text><text x="190" y="390">ㅎ</text></g>
</svg>
