<svg xmlns="http://www.w3.org/2000/svg" width="640" height="440" viewBox="-40 -40 640 440" shape-rendering="crispEdges">
<defs>
  <pattern id="gridMinor" width="40" height="40" patternUnits="userSpaceOnUse">
    <path d="M 40 0 L 0 0 0 40" fill="none" stroke="#94a3b8" stroke-width="1.4" />
  </pattern>
  <pattern id="gridMajor" width="200" height="200" patternUnits="userSpaceOnUse">
    <path d="M 200 0 L 0 0 0 200" fill="none" stroke="#64748b" stroke-width="1.4" />
  </pattern>
</defs>
<rect width="640" height="440" fill="white" x="-40" y="-40" />
<rect width="640" height="440" fill="url(#gridMinor)" x="-40" y="-40" />
<rect width="640" height="440" fill="url(#gridMajor)" x="-40" y="-40" />
<line x1="0" y1="0" x2="160" y2="0" stroke="#111111" stroke-width="4.9" stroke-linecap="square" />
<line x1="160" y1="0" x2="160" y2="120" stroke="#111111" stroke-width="2.1" stroke-linecap="square" stroke-dasharray="6 4" />
<line x1="0" y1="120" x2="160" y2="120" stroke="#111111" stroke-width="4.9" stroke-linecap="square" />
<line x1="0" y1="0" x2="0" y2="120" stroke="#111111" stroke-width="4.9" stroke-linecap="square" />
<line x1="160" y1="0" x2="240" y2="0" stroke="#111111" stroke-width="4.9" stroke-linecap="square" />
<line x1="240" y1="0" x2="240" y2="120" stroke="#111111" stroke-width="2.1" stroke-linecap="square" stroke-dasharray="6 4" />
<line x1="160" y1="120" x2="240" y2="120" stroke="#111111" stroke-width="4.9" stroke-linecap="square" />
<line x1="240" y1="0" x2="400" y2="0" stroke="#111111" stroke-width="4.9" stroke-linecap="square" />
<line x1="400" y1="0" x2="400" y2="120" stroke="#111111" stroke-width="2.1" stroke-linecap="square" stroke-dasharray="6 4" />
<line x1="240" y1="120" x2="400" y2="120" stroke="#111111" stroke-width="2.1" stroke-linecap="square" stroke-dasharray="6 4" />
<line x1="400" y1="0" x2="480" y2="0" stroke="#111111" stroke-width="4.9" stroke-linecap="square" />
<line x1="480" y1="0" x2="480" y2="120" stroke="#111111" stroke-width="4.9" stroke-linecap="square" />
<line x1="400" y1="120" x2="480" y2="120" stroke="#111111" stroke-width="4.9" stroke-linecap="square" />
<line x1="400" y1="120" x2="400" y2="200" stroke="#111111" stroke-width="4.9" stroke-linecap="square" />
<line x1="240" y1="200" x2="400" y2="200" stroke="#111111" stroke-width="2.1" stroke-linecap="square" stroke-dasharray="6 4" />
<line x1="240" y1="120" x2="240" y2="200" stroke="#111111" stroke-width="4.9" stroke-linecap="square" />
<line x1="400" y1="200" x2="400" y2="280" stroke="#111111" stroke-width="4.9" stroke-linecap="square" />
<line x1="240" y1="280" x2="400" y2="280" stroke="#111111" stroke-width="4.9" stroke-linecap="square" />
<line x1="240" y1="200" x2="240" y2="280" stroke="#111111" stroke-width="4.9" stroke-linecap="square" />
<g data-point-labels="true" font-family="sans-serif" font-size="20" font-weight="700" fill="#111111" text-anchor="middle" dominant-baseline="middle"><text x="-10" y="-10">ㄱ</text><text x="150" y="-10">ㄴ</text><text x="150" y="110">ㄷ</text><text x="-10" y="110">ㄹ</text><text x="230" y="-10">ㅁ</text><text x="230" y="110">ㅂ</text><text x="390" y="-10">ㅅ</text><text x="390" y="110">ㅇ</text><text x="470" y="-10">ㅈ</text><text x="470" y="110">ㅊ</text><text x="390" y="190">ㅋ</text><text x="230" y="190">ㅌ</text><text x="390" y="270">ㅍ</text><text x="230" y="270">ㅎ</text></g>
</svg>
