<svg xmlns="http://www.w3.org/2000/svg" width="900" height="540" viewBox="0 0 900 540" role="img" aria-label="1단계부터 3단계까지 책상과 의자 대응식">
  <style>
    .bg{fill:#f9fcff}.panel{fill:#fff;stroke:#c8d8e5;stroke-width:4}.title{font:800 34px sans-serif;fill:#142638}.body{font:900 38px sans-serif;fill:#26384b}.label{font:800 21px sans-serif;fill:#405870}.desk{fill:#fff;stroke:#ff2b16;stroke-width:6}.chair{fill:#fff;stroke:#0a46ff;stroke-width:6}
  </style>
  <rect class="bg" width="900" height="540"/>
  <rect class="panel" x="28" y="24" width="844" height="492" rx="22"/>
    <text class="body" x="58" y="92">이 대응관계를 식으로 나타낸 것을 고르세요.</text>
  <g transform="translate(84 206)">
    <text class="label" x="-16" y="-48">1단계: 1 × 4 = 4</text>
    <circle class="chair" cx="24" cy="-18" r="10"/>
    <circle class="chair" cx="-20" cy="34" r="10"/>
    <rect class="desk" x="0" y="18" width="48" height="32"/>
    <circle class="chair" cx="68" cy="34" r="10"/>
    <circle class="chair" cx="24" cy="86" r="10"/>
  </g>
  <g transform="translate(550 206)">
    <text class="label" x="-16" y="-48">2단계: 2 × 4 = 8</text>
    <g>
      <circle class="chair" cx="24" cy="-18" r="10"/>
      <circle class="chair" cx="-20" cy="34" r="10"/>
      <rect class="desk" x="0" y="18" width="48" height="32"/>
      <circle class="chair" cx="68" cy="34" r="10"/>
      <circle class="chair" cx="24" cy="86" r="10"/>
    </g>
    <g transform="translate(135 0)">
      <circle class="chair" cx="24" cy="-18" r="10"/>
      <circle class="chair" cx="-20" cy="34" r="10"/>
      <rect class="desk" x="0" y="18" width="48" height="32"/>
      <circle class="chair" cx="68" cy="34" r="10"/>
      <circle class="chair" cx="24" cy="86" r="10"/>
    </g>
  </g>
  <g transform="translate(270 386)">
    <text class="label" x="-16" y="-48">3단계: 3 × 4 = 12</text>
    <g>
      <circle class="chair" cx="24" cy="-18" r="10"/>
      <circle class="chair" cx="-20" cy="34" r="10"/>
      <rect class="desk" x="0" y="18" width="48" height="32"/>
      <circle class="chair" cx="68" cy="34" r="10"/>
      <circle class="chair" cx="24" cy="86" r="10"/>
    </g>
    <g transform="translate(135 0)">
      <circle class="chair" cx="24" cy="-18" r="10"/>
      <circle class="chair" cx="-20" cy="34" r="10"/>
      <rect class="desk" x="0" y="18" width="48" height="32"/>
      <circle class="chair" cx="68" cy="34" r="10"/>
      <circle class="chair" cx="24" cy="86" r="10"/>
    </g>
    <g transform="translate(270 0)">
      <circle class="chair" cx="24" cy="-18" r="10"/>
      <circle class="chair" cx="-20" cy="34" r="10"/>
      <rect class="desk" x="0" y="18" width="48" height="32"/>
      <circle class="chair" cx="68" cy="34" r="10"/>
      <circle class="chair" cx="24" cy="86" r="10"/>
    </g>
  </g>
</svg>
